<?xml version="1.0" encoding="utf-8"?>
<!-- Generator: Adobe Illustrator 23.0.3, SVG Export Plug-In . SVG Version: 6.00 Build 0)  -->
<svg version="1.1" id="Layer_1" xmlns="http://www.w3.org/2000/svg" xmlns:xlink="http://www.w3.org/1999/xlink" x="0px" y="0px"
	 viewBox="0 0 1072.1 193.5" style="enable-background:new 0 0 1072.1 193.5;" xml:space="preserve">
<style type="text/css">
	.st0{fill:none;stroke:#FBB03B;stroke-width:10.5267;stroke-linecap:round;stroke-linejoin:round;stroke-miterlimit:10;}
	.st1{fill:#FFFFFF;}
</style>
<title>king-major-logo</title>
<g>
	<polygon class="st0" points="204.3,152.5 26.7,152.5 18,67.8 	"/>
	<polygon class="st0" points="26.7,152.5 204.3,152.5 213,67.8 	"/>
	<polyline class="st0" points="174.2,152.5 115.5,58.1 56.9,152.5 	"/>
	<polyline class="st0" points="203.2,152 115.5,10.9 27.9,152 	"/>
</g>
<g>
	<path class="st1" d="M326.8,119.9c2.4,3.2,3.6,7.1,3.6,11.7c0,6.6-2.6,11.6-7.6,15.1c-5.1,3.5-12.5,5.3-22.3,5.3h-38.7V77.1h36.6
		c9.1,0,16.1,1.7,21,5.2c4.9,3.5,7.3,8.2,7.3,14.2c0,3.6-0.9,6.9-2.6,9.7c-1.7,2.9-4.2,5.1-7.3,6.7
		C321,114.4,324.4,116.7,326.8,119.9z M279,90.2v17.6h17.2c4.3,0,7.5-0.7,9.7-2.2c2.2-1.5,3.3-3.7,3.3-6.6c0-2.9-1.1-5.1-3.3-6.6
		c-2.2-1.5-5.5-2.2-9.7-2.2H279z M309.5,136.7c2.3-1.5,3.5-3.8,3.5-7c0-6.2-4.6-9.3-13.8-9.3H279V139h20.2
		C303.8,139,307.2,138.2,309.5,136.7z"/>
	<path class="st1" d="M398.5,127.9h-43.5c0.8,3.6,2.6,6.4,5.6,8.5c2.9,2.1,6.6,3.1,10.9,3.1c3,0,5.7-0.4,8-1.3
		c2.3-0.9,4.5-2.3,6.5-4.2l8.9,9.6c-5.4,6.2-13.3,9.3-23.7,9.3c-6.5,0-12.2-1.3-17.2-3.8c-5-2.5-8.8-6-11.6-10.5
		c-2.7-4.5-4.1-9.6-4.1-15.3c0-5.6,1.3-10.7,4-15.2c2.7-4.5,6.3-8.1,11-10.6c4.7-2.5,9.9-3.8,15.7-3.8c5.6,0,10.7,1.2,15.3,3.6
		c4.6,2.4,8.1,5.9,10.7,10.4c2.6,4.5,3.9,9.8,3.9,15.8C398.8,123.7,398.7,125.2,398.5,127.9z M359.4,109.4c-2.6,2.1-4.1,5.1-4.7,8.8
		h28.3c-0.6-3.6-2.1-6.5-4.7-8.7c-2.6-2.2-5.7-3.3-9.4-3.3C365.2,106.2,362,107.3,359.4,109.4z"/>
	<path class="st1" d="M433.9,95.7c3.4-1.4,7.3-2.1,11.7-2.1V109c-1.9-0.1-3.1-0.2-3.7-0.2c-4.8,0-8.5,1.3-11.2,4
		c-2.7,2.7-4.1,6.7-4.1,12V152h-16.7V94.5h15.9v7.6C427.8,99.3,430.5,97.2,433.9,95.7z"/>
	<path class="st1" d="M507.8,100c4.4,4.3,6.6,10.6,6.6,19V152h-16.7v-30.4c0-4.6-1-8-3-10.2c-2-2.2-4.9-3.4-8.7-3.4
		c-4.2,0-7.6,1.3-10.1,3.9c-2.5,2.6-3.7,6.5-3.7,11.6V152h-16.7V94.5h15.9v6.7c2.2-2.4,5-4.3,8.2-5.6c3.3-1.3,6.9-2,10.8-2
		C497.7,93.6,503.4,95.7,507.8,100z"/>
	<path class="st1" d="M573.2,100c4.8,4.2,7.2,10.6,7.2,19.2V152h-15.6v-7.2c-3.1,5.3-9,8-17.5,8c-4.4,0-8.3-0.7-11.5-2.2
		c-3.2-1.5-5.7-3.6-7.4-6.2c-1.7-2.6-2.6-5.6-2.6-9c0-5.3,2-9.6,6-12.6c4-3.1,10.3-4.6,18.7-4.6h13.3c0-3.6-1.1-6.4-3.3-8.4
		c-2.2-2-5.5-2.9-9.9-2.9c-3.1,0-6.1,0.5-9,1.4c-3,1-5.5,2.3-7.5,3.9l-6-11.7c3.1-2.2,6.9-3.9,11.3-5.1c4.4-1.2,8.9-1.8,13.5-1.8
		C561.6,93.6,568.5,95.7,573.2,100z M559,139.6c2.2-1.3,3.8-3.3,4.7-5.8v-5.9h-11.4c-6.8,0-10.3,2.2-10.3,6.7c0,2.1,0.8,3.8,2.5,5.1
		c1.7,1.2,4,1.9,6.9,1.9C554.3,141.6,556.8,141,559,139.6z"/>
	<path class="st1" d="M619.5,95.7c3.4-1.4,7.3-2.1,11.7-2.1V109c-1.9-0.1-3.1-0.2-3.7-0.2c-4.8,0-8.5,1.3-11.2,4
		c-2.7,2.7-4.1,6.7-4.1,12V152h-16.7V94.5h15.9v7.6C613.4,99.3,616.1,97.2,619.5,95.7z"/>
	<path class="st1" d="M699.2,72.6V152h-15.9v-6.6c-4.1,5-10.1,7.5-18,7.5c-5.4,0-10.3-1.2-14.7-3.6c-4.4-2.4-7.8-5.9-10.3-10.4
		c-2.5-4.5-3.7-9.7-3.7-15.6c0-5.9,1.2-11.1,3.7-15.6c2.5-4.5,5.9-8,10.3-10.4c4.4-2.4,9.3-3.6,14.7-3.6c7.3,0,13.1,2.3,17.2,7V72.6
		H699.2z M678.7,134.8c2.8-2.9,4.2-6.8,4.2-11.6c0-4.8-1.4-8.7-4.2-11.6c-2.8-2.9-6.3-4.3-10.5-4.3c-4.3,0-7.8,1.4-10.6,4.3
		c-2.8,2.9-4.2,6.8-4.2,11.6c0,4.9,1.4,8.7,4.2,11.6s6.3,4.3,10.6,4.3C672.4,139.2,675.9,137.7,678.7,134.8z"/>
	<path class="st1" d="M814.2,152l-0.1-44.9l-22,37h-7.8l-21.9-36v44h-16.3V77.1h14.3l28,46.5L816,77.1h14.2l0.2,74.9H814.2z"/>
	<path class="st1" d="M890.8,100c4.8,4.2,7.2,10.6,7.2,19.2V152h-15.6v-7.2c-3.1,5.3-9,8-17.5,8c-4.4,0-8.3-0.7-11.5-2.2
		c-3.2-1.5-5.7-3.6-7.4-6.2c-1.7-2.6-2.6-5.6-2.6-9c0-5.3,2-9.6,6-12.6c4-3.1,10.3-4.6,18.7-4.6h13.3c0-3.6-1.1-6.4-3.3-8.4
		c-2.2-2-5.5-2.9-9.9-2.9c-3.1,0-6.1,0.5-9,1.4c-3,1-5.5,2.3-7.5,3.9l-6-11.7c3.1-2.2,6.9-3.9,11.3-5.1c4.4-1.2,8.9-1.8,13.5-1.8
		C879.2,93.6,886,95.7,890.8,100z M876.6,139.6c2.2-1.3,3.8-3.3,4.7-5.8v-5.9h-11.4c-6.8,0-10.3,2.2-10.3,6.7c0,2.1,0.8,3.8,2.5,5.1
		c1.7,1.2,4,1.9,6.9,1.9C871.8,141.6,874.4,141,876.6,139.6z"/>
	<path class="st1" d="M895.4,170.4l4.5-12.1c1.9,1.4,4.3,2,7.1,2c2.1,0,3.8-0.7,5-2.1c1.2-1.4,1.8-3.5,1.8-6.3V94.5h16.7v57.4
		c0,6.7-1.9,12-5.7,15.9c-3.8,3.9-9.1,5.8-16,5.8C902.9,173.6,898.5,172.5,895.4,170.4z M914.6,83.8c-1.9-1.8-2.9-4-2.9-6.6
		c0-2.6,1-4.8,2.9-6.6c1.9-1.8,4.4-2.7,7.5-2.7c3.1,0,5.6,0.9,7.5,2.6c1.9,1.7,2.9,3.9,2.9,6.4c0,2.8-1,5.1-2.9,6.9
		c-1.9,1.8-4.4,2.7-7.5,2.7C919.1,86.4,916.6,85.5,914.6,83.8z"/>
	<path class="st1" d="M956.9,149.1c-4.8-2.5-8.6-6-11.3-10.5c-2.7-4.5-4.1-9.6-4.1-15.3c0-5.7,1.4-10.8,4.1-15.3
		c2.7-4.5,6.5-8,11.3-10.5c4.8-2.5,10.3-3.8,16.3-3.8c6.1,0,11.5,1.3,16.3,3.8c4.8,2.5,8.5,6,11.2,10.5c2.7,4.5,4.1,9.6,4.1,15.3
		c0,5.7-1.4,10.8-4.1,15.3s-6.5,8-11.2,10.5c-4.8,2.5-10.2,3.8-16.3,3.8C967.2,152.9,961.8,151.6,956.9,149.1z M983.8,134.8
		c2.7-2.9,4.1-6.8,4.1-11.6c0-4.8-1.4-8.7-4.1-11.6c-2.7-2.9-6.3-4.3-10.5-4.3s-7.8,1.4-10.6,4.3c-2.8,2.9-4.2,6.8-4.2,11.6
		c0,4.9,1.4,8.7,4.2,11.6c2.8,2.9,6.3,4.3,10.6,4.3S981,137.7,983.8,134.8z"/>
	<path class="st1" d="M1039.9,95.7c3.4-1.4,7.3-2.1,11.7-2.1V109c-1.9-0.1-3.1-0.2-3.7-0.2c-4.8,0-8.5,1.3-11.2,4
		c-2.7,2.7-4.1,6.7-4.1,12V152h-16.7V94.5h15.9v7.6C1033.9,99.3,1036.6,97.2,1039.9,95.7z"/>
</g>
</svg>
