<?xml version="1.0" encoding="utf-8"?>
<!-- Generator: Adobe Illustrator 23.0.3, SVG Export Plug-In . SVG Version: 6.00 Build 0)  -->
<svg version="1.1" id="Layer_1" xmlns="http://www.w3.org/2000/svg" xmlns:xlink="http://www.w3.org/1999/xlink" x="0px" y="0px"
	 viewBox="0 0 928.8 193.5" style="enable-background:new 0 0 928.8 193.5;" xml:space="preserve">
<style type="text/css">
	.st0{fill:#FFFFFF;}
	.st1{fill:none;stroke:#FBB03B;stroke-width:10.5267;stroke-linecap:round;stroke-linejoin:round;stroke-miterlimit:10;}
</style>
<title>king-major-logo</title>
<g>
	<g>
		<path class="st0" d="M262.4,66.2H280v31.5l24.8-31.5h20.9l-31.9,40.8l35,50.6h-20.6L280,117.1v40.6h-17.6V66.2z"/>
		<path class="st0" d="M346,62.2c3,0,5.5,1.1,7.7,3.2c2.1,2.2,3.2,4.8,3.2,7.8c0,3-1.1,5.6-3.2,7.7c-2.1,2.1-4.6,3.2-7.6,3.2
			c-3,0-5.6-1.1-7.7-3.3c-2.1-2.2-3.2-4.8-3.2-7.9c0-3,1.1-5.5,3.2-7.6C340.5,63.3,343,62.2,346,62.2z M337.5,90.1h17v67.7h-17V90.1
			z"/>
		<path class="st0" d="M369.9,90.1h17V97c3.8-3.2,7.3-5.5,10.5-6.8c3.1-1.3,6.3-1.9,9.6-1.9c6.7,0,12.4,2.3,17.1,7
			c3.9,4,5.9,9.9,5.9,17.7v44.7h-16.8v-29.6c0-8.1-0.4-13.4-1.1-16.1c-0.7-2.7-2-4.7-3.8-6.1c-1.8-1.4-4-2.1-6.7-2.1
			c-3.4,0-6.4,1.1-8.8,3.4c-2.5,2.3-4.2,5.5-5.1,9.5c-0.5,2.1-0.7,6.7-0.7,13.7v27.1h-17V90.1z"/>
		<path class="st0" d="M496.3,90.1h16.9v58c0,11.4-2.3,19.9-6.9,25.2c-6.2,7.3-15.5,10.9-27.9,10.9c-6.6,0-12.2-0.8-16.7-2.5
			c-4.5-1.7-8.3-4.1-11.4-7.3c-3.1-3.2-5.4-7.1-6.9-11.7h18.7c1.7,1.9,3.8,3.3,6.4,4.3c2.6,1,5.7,1.5,9.3,1.5c4.6,0,8.2-0.7,11-2.1
			c2.8-1.4,4.7-3.2,5.9-5.5c1.1-2.2,1.7-6.1,1.7-11.6c-3,3-6.1,5.1-9.4,6.4c-3.3,1.3-7,2-11.1,2c-9.1,0-16.7-3.3-23-9.8
			c-6.3-6.5-9.4-14.8-9.4-24.9c0-10.7,3.3-19.4,9.9-25.9c6-5.9,13.2-8.8,21.5-8.8c3.9,0,7.6,0.7,11,2.1c3.5,1.4,6.9,3.8,10.4,7.1
			V90.1z M478.7,104.2c-5.3,0-9.8,1.8-13.2,5.4c-3.5,3.6-5.2,8.1-5.2,13.5c0,5.6,1.8,10.3,5.3,13.9c3.6,3.6,8,5.4,13.4,5.4
			c5.3,0,9.6-1.8,13-5.3c3.4-3.5,5.1-8.1,5.1-13.9c0-5.6-1.7-10.2-5.2-13.7C488.6,105.9,484.2,104.2,478.7,104.2z"/>
		<path class="st0" d="M576.8,66.2h17L615,130l21.4-63.8h17l15.3,91.5h-16.8L642,99.9l-19.4,57.8h-15.3L588,99.9l-10,57.8h-17
			L576.8,66.2z"/>
		<path class="st0" d="M730.6,90.1h17v67.7h-17v-7.2c-3.3,3.2-6.6,5.4-10,6.8c-3.3,1.4-6.9,2.1-10.8,2.1c-8.7,0-16.3-3.4-22.7-10.2
			c-6.4-6.8-9.6-15.2-9.6-25.3c0-10.4,3.1-19,9.3-25.7c6.2-6.7,13.7-10,22.5-10c4.1,0,7.9,0.8,11.4,2.3c3.6,1.5,6.9,3.8,9.9,6.9
			V90.1z M712.7,104c-5.2,0-9.6,1.9-13.1,5.6c-3.5,3.7-5.2,8.5-5.2,14.3c0,5.8,1.8,10.7,5.3,14.4c3.5,3.8,7.9,5.7,13,5.7
			c5.3,0,9.8-1.9,13.3-5.6c3.5-3.7,5.3-8.6,5.3-14.6c0-5.9-1.8-10.7-5.3-14.3C722.6,105.8,718.1,104,712.7,104z"/>
		<path class="st0" d="M764.2,90.1h17V160c0,6.4-0.6,11.2-1.9,14.4c-1.3,3.2-3.3,5.6-6,7.3c-2.7,1.7-6,2.6-9.9,2.6
			c-3.4,0-7.6-0.9-12.7-2.6v-13.4c2.7,1.3,5,1.9,7,1.9c2.2,0,3.8-0.6,4.9-1.9c1.1-1.3,1.6-3.6,1.6-7.1V90.1z M772.7,62.2
			c3,0,5.6,1.1,7.7,3.2c2.1,2.1,3.2,4.8,3.2,7.8c0,3-1.1,5.6-3.2,7.8c-2.1,2.1-4.6,3.2-7.6,3.2c-3,0-5.6-1.1-7.7-3.3
			c-2.1-2.2-3.2-4.8-3.2-7.9c0-3,1-5.5,3.1-7.6C767.2,63.3,769.7,62.2,772.7,62.2z"/>
		<path class="st0" d="M829.6,88.3c6.4,0,12.4,1.6,18,4.8c5.6,3.2,10,7.5,13.2,13c3.2,5.5,4.7,11.4,4.7,17.7
			c0,6.4-1.6,12.4-4.8,17.9c-3.2,5.6-7.5,9.9-13,13c-5.5,3.1-11.5,4.7-18.1,4.7c-9.7,0-18-3.5-24.8-10.4
			c-6.9-6.9-10.3-15.3-10.3-25.2c0-10.6,3.9-19.4,11.6-26.4C812.9,91.4,820.8,88.3,829.6,88.3z M829.9,104.3
			c-5.3,0-9.7,1.8-13.2,5.5c-3.5,3.7-5.3,8.4-5.3,14.1c0,5.9,1.7,10.7,5.2,14.3c3.5,3.6,7.9,5.5,13.2,5.5c5.3,0,9.7-1.8,13.3-5.5
			c3.5-3.7,5.3-8.4,5.3-14.2c0-5.8-1.7-10.5-5.2-14.1C839.7,106.1,835.3,104.3,829.9,104.3z"/>
		<path class="st0" d="M875.4,90.1h14.6v8.5c1.6-3.4,3.7-5.9,6.3-7.6c2.6-1.7,5.5-2.6,8.6-2.6c2.2,0,4.5,0.6,6.9,1.7l-5.3,14.6
			c-2-1-3.6-1.5-4.9-1.5c-2.6,0-4.8,1.6-6.6,4.9c-1.8,3.2-2.7,9.6-2.7,19l0.1,3.3v27.4h-16.9V90.1z"/>
	</g>
	<g>
		<polygon class="st1" points="204.3,152.5 26.7,152.5 18,67.8 		"/>
		<polygon class="st1" points="26.7,152.5 204.3,152.5 213,67.8 		"/>
		<polyline class="st1" points="174.2,152.5 115.5,58.1 56.9,152.5 		"/>
		<polyline class="st1" points="203.2,152 115.5,10.9 27.9,152 		"/>
	</g>
</g>
</svg>
